<svg width="39" height="30" viewBox="0 0 39 30" fill="none" xmlns="http://www.w3.org/2000/svg">
<g filter="url(#filter0_d_87_6)">
<path fill-rule="evenodd" clip-rule="evenodd" d="M9.56062 10.6454L13.3775 15.0779C13.5203 15.2324 13.6348 15.4187 13.7142 15.6257C13.7936 15.8327 13.8363 16.0561 13.8398 16.2827C13.8432 16.5093 13.8073 16.7344 13.7342 16.9445C13.6612 17.1546 13.5524 17.3455 13.4144 17.5057C13.2764 17.666 13.112 17.7923 12.9311 17.8772C12.7502 17.9621 12.5563 18.0037 12.3612 17.9997C12.1661 17.9957 11.9737 17.9461 11.7955 17.8539C11.6172 17.7617 11.4568 17.6287 11.3237 17.4629L5.02687 10.1504L4 8.95791L5.02687 7.76541L11.3237 0.452907C11.5992 0.154827 11.9636 -0.00745058 12.34 0.000262906C12.7165 0.00797639 13.0757 0.185078 13.3419 0.494258C13.6081 0.803437 13.7606 1.22055 13.7673 1.65773C13.7739 2.09491 13.6342 2.51801 13.3775 2.83791L9.56062 7.27041H28.7031C30.3732 7.27041 31.9748 8.04083 33.1557 9.41219C34.3366 10.7835 35 12.6435 35 14.5829C35 16.5223 34.3366 18.3823 33.1557 19.7536C31.9748 21.125 30.3732 21.8954 28.7031 21.8954H24.8281C24.4427 21.8954 24.0731 21.7176 23.8006 21.4011C23.5281 21.0847 23.375 20.6555 23.375 20.2079C23.375 19.7604 23.5281 19.3311 23.8006 19.0147C24.0731 18.6982 24.4427 18.5204 24.8281 18.5204H28.7031C29.6024 18.5204 30.4648 18.1056 31.1007 17.3671C31.7365 16.6287 32.0938 15.6272 32.0938 14.5829C32.0938 13.5386 31.7365 12.5371 31.1007 11.7987C30.4648 11.0602 29.6024 10.6454 28.7031 10.6454H9.56062Z" fill="black"/>
</g>
<defs>
<filter id="filter0_d_87_6" x="0" y="0" width="39" height="29.8954" filterUnits="userSpaceOnUse" color-interpolation-filters="sRGB">
<feFlood flood-opacity="0" result="BackgroundImageFix"/>
<feColorMatrix in="SourceAlpha" type="matrix" values="0 0 0 0 0 0 0 0 0 0 0 0 0 0 0 0 0 0 127 0" result="hardAlpha"/>
<feOffset dy="4"/>
<feGaussianBlur stdDeviation="2"/>
<feComposite in2="hardAlpha" operator="out"/>
<feColorMatrix type="matrix" values="0 0 0 0 0 0 0 0 0 0 0 0 0 0 0 0 0 0 0.25 0"/>
<feBlend mode="normal" in2="BackgroundImageFix" result="effect1_dropShadow_87_6"/>
<feBlend mode="normal" in="SourceGraphic" in2="effect1_dropShadow_87_6" result="shape"/>
</filter>
</defs>
</svg>
